<svg width="226" height="48" viewBox="0 0 226 48" fill="none" xmlns="http://www.w3.org/2000/svg">
<path d="M5.33333 26.6667L11.1467 26.1822C12.9657 26.0307 13.3741 25.6333 13.5757 23.8193L14 20" stroke="#495D69" stroke-width="1.5" stroke-linecap="round"/>
<path d="M4 20H14.6667" stroke="#495D69" stroke-width="1.5" stroke-linecap="round"/>
<path d="M4 30.6667C4.73638 30.6667 5.33333 30.0697 5.33333 29.3333C5.33333 28.597 4.73638 28 4 28C3.26362 28 2.66667 28.597 2.66667 29.3333C2.66667 30.0697 3.26362 30.6667 4 30.6667Z" stroke="#495D69" stroke-width="1.5"/>
<path d="M11.3333 30.6667C12.0697 30.6667 12.6667 30.0697 12.6667 29.3333C12.6667 28.597 12.0697 28 11.3333 28C10.597 28 10 28.597 10 29.3333C10 30.0697 10.597 30.6667 11.3333 30.6667Z" stroke="#495D69" stroke-width="1.5"/>
<path d="M5.33333 29.3333H10" stroke="#495D69" stroke-width="1.5" stroke-linecap="round"/>
<path d="M1.33334 17.3333H1.97734C2.60712 17.3333 3.1561 17.7497 3.30884 18.3433L5.29235 26.051C5.39258 26.4405 5.3068 26.8531 5.05883 27.1744L4.42142 28" stroke="#495D69" stroke-width="1.5" stroke-linecap="round"/>
<path d="M33.05 29V19.2H34.422L37.894 26.046L41.352 19.2H42.738V29H41.562V21.3L38.328 27.628H37.446L34.226 21.328V29H33.05ZM45.5352 32.08L47.2572 28.216H46.8512L44.0792 21.944H45.3532L47.6492 27.334L50.0712 21.944H51.2892L46.7672 32.08H45.5352ZM60.7012 29.168C59.7585 29.168 58.9279 28.958 58.2092 28.538C57.4999 28.1087 56.9445 27.516 56.5432 26.76C56.1512 25.9947 55.9552 25.108 55.9552 24.1C55.9552 23.1013 56.1512 22.224 56.5432 21.468C56.9445 20.7027 57.4999 20.1053 58.2092 19.676C58.9279 19.2467 59.7585 19.032 60.7012 19.032C61.6625 19.032 62.4979 19.2467 63.2072 19.676C63.9259 20.1053 64.4812 20.7027 64.8732 21.468C65.2652 22.224 65.4612 23.1013 65.4612 24.1C65.4612 25.108 65.2652 25.9947 64.8732 26.76C64.4812 27.516 63.9259 28.1087 63.2072 28.538C62.4979 28.958 61.6625 29.168 60.7012 29.168ZM60.7012 28.132C61.4105 28.132 62.0312 27.9733 62.5632 27.656C63.1045 27.3293 63.5199 26.8673 63.8092 26.27C64.1079 25.6633 64.2572 24.94 64.2572 24.1C64.2572 23.26 64.1079 22.5413 63.8092 21.944C63.5199 21.3373 63.1045 20.8753 62.5632 20.558C62.0312 20.2407 61.4105 20.082 60.7012 20.082C60.0012 20.082 59.3805 20.2407 58.8392 20.558C58.3072 20.8753 57.8919 21.3373 57.5932 21.944C57.3039 22.5413 57.1592 23.26 57.1592 24.1C57.1592 24.94 57.3039 25.6633 57.5932 26.27C57.8919 26.8673 58.3072 27.3293 58.8392 27.656C59.3805 27.9733 60.0012 28.132 60.7012 28.132ZM67.1187 29V21.944H68.1827L68.2667 23.288C68.4253 22.9707 68.626 22.7 68.8687 22.476C69.1207 22.252 69.4193 22.0793 69.7647 21.958C70.1193 21.8367 70.5207 21.776 70.9687 21.776V23.008H70.5347C70.236 23.008 69.9513 23.05 69.6807 23.134C69.41 23.2087 69.1673 23.3347 68.9527 23.512C68.7473 23.6893 68.584 23.932 68.4627 24.24C68.3507 24.5387 68.2947 24.912 68.2947 25.36V29H67.1187ZM75.1625 29.168C74.4812 29.168 73.8792 29.0093 73.3565 28.692C72.8432 28.3653 72.4465 27.922 72.1665 27.362C71.8865 26.802 71.7465 26.1673 71.7465 25.458C71.7465 24.7487 71.8865 24.1187 72.1665 23.568C72.4465 23.008 72.8432 22.5693 73.3565 22.252C73.8792 21.9347 74.4859 21.776 75.1765 21.776C75.7459 21.776 76.2452 21.8927 76.6745 22.126C77.1132 22.3593 77.4539 22.686 77.6965 23.106V18.92H78.8725V29H77.8085L77.6965 27.838C77.5472 28.0713 77.3559 28.2907 77.1225 28.496C76.8892 28.692 76.6092 28.8553 76.2825 28.986C75.9652 29.1073 75.5919 29.168 75.1625 29.168ZM75.2885 28.146C75.7552 28.146 76.1659 28.034 76.5205 27.81C76.8752 27.586 77.1505 27.278 77.3465 26.886C77.5519 26.4847 77.6545 26.0133 77.6545 25.472C77.6545 24.94 77.5519 24.4733 77.3465 24.072C77.1505 23.6707 76.8752 23.358 76.5205 23.134C76.1659 22.91 75.7552 22.798 75.2885 22.798C74.8405 22.798 74.4345 22.91 74.0705 23.134C73.7159 23.358 73.4405 23.6707 73.2445 24.072C73.0485 24.4733 72.9505 24.94 72.9505 25.472C72.9505 26.0133 73.0485 26.4847 73.2445 26.886C73.4405 27.278 73.7159 27.586 74.0705 27.81C74.4345 28.034 74.8405 28.146 75.2885 28.146ZM83.9119 29.168C83.2586 29.168 82.6752 29.014 82.1619 28.706C81.6486 28.398 81.2472 27.9687 80.9579 27.418C80.6686 26.858 80.5239 26.2093 80.5239 25.472C80.5239 24.7253 80.6639 24.0767 80.9439 23.526C81.2332 22.9753 81.6346 22.546 82.1479 22.238C82.6706 21.93 83.2679 21.776 83.9399 21.776C84.6306 21.776 85.2186 21.93 85.7039 22.238C86.1892 22.546 86.5579 22.952 86.8099 23.456C87.0712 23.9507 87.2019 24.4967 87.2019 25.094C87.2019 25.1873 87.2019 25.2853 87.2019 25.388C87.2019 25.4907 87.1972 25.6073 87.1879 25.738H81.4059V24.828H86.0399C86.0119 24.184 85.7972 23.68 85.3959 23.316C85.0039 22.952 84.5092 22.77 83.9119 22.77C83.5199 22.77 83.1512 22.8633 82.8059 23.05C82.4606 23.2273 82.1852 23.4933 81.9799 23.848C81.7746 24.1933 81.6719 24.6273 81.6719 25.15V25.542C81.6719 26.1207 81.7746 26.606 81.9799 26.998C82.1946 27.39 82.4699 27.684 82.8059 27.88C83.1512 28.076 83.5199 28.174 83.9119 28.174C84.4066 28.174 84.8126 28.0667 85.1299 27.852C85.4566 27.628 85.6946 27.3247 85.8439 26.942H87.0059C86.8846 27.3713 86.6839 27.754 86.4039 28.09C86.1239 28.4167 85.7739 28.678 85.3539 28.874C84.9432 29.07 84.4626 29.168 83.9119 29.168ZM88.7749 29V21.944H89.8389L89.9229 23.288C90.0816 22.9707 90.2823 22.7 90.5249 22.476C90.7769 22.252 91.0756 22.0793 91.4209 21.958C91.7756 21.8367 92.1769 21.776 92.6249 21.776V23.008H92.1909C91.8923 23.008 91.6076 23.05 91.3369 23.134C91.0663 23.2087 90.8236 23.3347 90.6089 23.512C90.4036 23.6893 90.2403 23.932 90.1189 24.24C90.0069 24.5387 89.9509 24.912 89.9509 25.36V29H88.7749ZM96.6166 29.168C96.0379 29.168 95.5292 29.07 95.0906 28.874C94.6519 28.678 94.3019 28.4073 94.0406 28.062C93.7886 27.7073 93.6346 27.292 93.5786 26.816H94.7826C94.8292 27.0587 94.9272 27.2827 95.0766 27.488C95.2259 27.6933 95.4266 27.8613 95.6786 27.992C95.9399 28.1133 96.2572 28.174 96.6306 28.174C96.9572 28.174 97.2279 28.1273 97.4426 28.034C97.6572 27.9313 97.8159 27.796 97.9186 27.628C98.0306 27.46 98.0866 27.278 98.0866 27.082C98.0866 26.7927 98.0166 26.5733 97.8766 26.424C97.7459 26.2747 97.5499 26.158 97.2886 26.074C97.0272 25.9807 96.7099 25.9013 96.3366 25.836C96.0286 25.78 95.7252 25.7053 95.4266 25.612C95.1279 25.5187 94.8619 25.3973 94.6286 25.248C94.3952 25.0893 94.2086 24.898 94.0686 24.674C93.9379 24.45 93.8726 24.1747 93.8726 23.848C93.8726 23.4467 93.9752 23.092 94.1806 22.784C94.3952 22.4667 94.6939 22.2193 95.0766 22.042C95.4592 21.8647 95.9072 21.776 96.4206 21.776C97.1766 21.776 97.7879 21.958 98.2546 22.322C98.7212 22.686 98.9966 23.2133 99.0806 23.904H97.9186C97.8719 23.5493 97.7179 23.274 97.4566 23.078C97.2046 22.8727 96.8546 22.77 96.4066 22.77C95.9679 22.77 95.6319 22.8587 95.3986 23.036C95.1746 23.2133 95.0626 23.4467 95.0626 23.736C95.0626 23.9227 95.1232 24.0907 95.2446 24.24C95.3752 24.38 95.5666 24.5013 95.8186 24.604C96.0706 24.7067 96.3739 24.7907 96.7286 24.856C97.1952 24.94 97.6199 25.052 98.0026 25.192C98.3852 25.332 98.6932 25.542 98.9266 25.822C99.1692 26.0927 99.2906 26.48 99.2906 26.984C99.2906 27.4227 99.1786 27.8053 98.9546 28.132C98.7399 28.4587 98.4319 28.7153 98.0306 28.902C97.6292 29.0793 97.1579 29.168 96.6166 29.168Z" fill="#1C2834"/>
</svg>
