<svg width="16" height="16" viewBox="0 0 16 16" fill="none" xmlns="http://www.w3.org/2000/svg">
<path d="M5.33325 10.6667L11.1467 10.1822C12.9657 10.0307 13.374 9.63333 13.5756 7.81927L13.9999 4" stroke="#141C24" stroke-width="1.5" stroke-linecap="round"/>
<path d="M4 4H5.66667M14.6667 4H12.3333" stroke="#141C24" stroke-width="1.5" stroke-linecap="round"/>
<path d="M7.33325 5.66667C7.66092 6.0038 8.53312 7.33333 8.99992 7.33333M8.99992 7.33333C9.46672 7.33333 10.3389 6.0038 10.6666 5.66667M8.99992 7.33333V2" stroke="#0C0D0D" stroke-width="1.5" stroke-linecap="round" stroke-linejoin="round"/>
<path d="M4.00008 14.6667C4.73646 14.6667 5.33341 14.0697 5.33341 13.3333C5.33341 12.597 4.73646 12 4.00008 12C3.2637 12 2.66675 12.597 2.66675 13.3333C2.66675 14.0697 3.2637 14.6667 4.00008 14.6667Z" stroke="#0C0D0D" stroke-width="1.5"/>
<path d="M11.3333 14.6667C12.0697 14.6667 12.6667 14.0697 12.6667 13.3333C12.6667 12.597 12.0697 12 11.3333 12C10.597 12 10 12.597 10 13.3333C10 14.0697 10.597 14.6667 11.3333 14.6667Z" stroke="#0C0D0D" stroke-width="1.5"/>
<path d="M5.33325 13.3333H9.99992" stroke="#0C0D0D" stroke-width="1.5" stroke-linecap="round"/>
<path d="M1.33325 1.33325H1.97725C2.60704 1.33325 3.15601 1.74965 3.30876 2.34321L5.29227 10.0509C5.3925 10.4405 5.30672 10.8531 5.05875 11.1743L4.42134 11.9999" stroke="#0C0D0D" stroke-width="1.5" stroke-linecap="round"/>
</svg>
