<svg width="16" height="16" viewBox="0 0 16 16" fill="none" xmlns="http://www.w3.org/2000/svg">
<path d="M1.33325 8.95241V5.33334H14.6666V8.95241C14.6666 11.6461 14.6666 12.993 13.7988 13.8298C12.9309 14.6667 11.5342 14.6667 8.74065 14.6667H7.25919C4.46567 14.6667 3.06892 14.6667 2.20109 13.8298C1.33325 12.993 1.33325 11.6461 1.33325 8.95241Z" stroke="#C1CF16" stroke-width="1.5" stroke-linecap="round" stroke-linejoin="round"/>
<path d="M1.33325 5.33334L1.97428 3.79488C2.47143 2.60172 2.72001 2.00514 3.22385 1.66924C3.7277 1.33334 4.374 1.33334 5.66659 1.33334H10.3333C11.6259 1.33334 12.2721 1.33334 12.776 1.66924C13.2799 2.00514 13.5284 2.60172 14.0256 3.79488L14.6666 5.33334" stroke="#C1CF16" stroke-width="1.5" stroke-linecap="round"/>
<path d="M8 5.33334V1.33334" stroke="#C1CF16" stroke-width="1.5" stroke-linecap="round"/>
<path d="M6.66675 8H9.33341" stroke="#C1CF16" stroke-width="1.5" stroke-linecap="round"/>
</svg>
