<svg width="20" height="18" viewBox="0 0 20 18" fill="none" xmlns="http://www.w3.org/2000/svg">
<path d="M9.31804 12.162C6.19269 9.84871 5.34564 7.75443 5.19603 6.63893C5.07502 5.73662 5.33528 5.40158 5.38175 5.34685C5.60918 5.21313 5.76374 5.16286 5.84406 5.14303C5.92872 5.12214 5.97309 5.12447 5.98937 5.12583C6.02934 5.12919 6.09337 5.14939 6.15633 5.19668L6.15667 5.19693C6.17423 5.21011 6.19265 5.22396 6.21184 5.23839C6.43278 5.40452 6.75623 5.64774 7.04892 5.83935C7.21609 5.9488 7.51731 6.13837 7.89826 6.31052C8.24345 6.46651 9.00033 6.77087 10.0001 6.77087C10.9998 6.77087 11.7567 6.46651 12.1019 6.31052C12.4828 6.13837 12.7841 5.9488 12.9512 5.83936C13.2439 5.64774 13.5674 5.40453 13.7883 5.2384C13.8075 5.22397 13.8259 5.21012 13.8435 5.19693L13.8438 5.19669C13.9068 5.14939 13.9708 5.12919 14.0108 5.12583C14.0271 5.12447 14.0715 5.12214 14.1561 5.14304C14.2364 5.16286 14.391 5.21313 14.6184 5.34683C14.6649 5.40157 14.9251 5.73663 14.8041 6.63894C14.6545 7.75445 13.8076 9.84867 10.6822 12.1619M9.31804 12.162L6.49213 15.9799M9.31804 12.162L6.49213 15.9799M9.31804 12.162C9.60421 12.3738 9.81876 12.5322 10.0001 12.6618C10.1814 12.5322 10.396 12.3737 10.6822 12.1619M6.49213 15.9799L6.49218 15.98C7.97391 17.0767 8.71478 17.625 10.0001 17.625C11.2854 17.625 12.0263 17.0766 13.5081 15.9799M6.49213 15.9799C-1.28744 10.2218 -0.524269 3.39657 2.84846 1.32773C5.41837 -0.248653 7.66138 0.386607 9.00878 1.39851L9.0097 1.3992C9.56166 1.81365 9.83764 2.02087 10.0001 2.02087C10.1625 2.02087 10.4385 1.81365 10.9905 1.3992L10.9914 1.39851C12.3388 0.386607 14.5818 -0.248653 17.1517 1.32773C20.5244 3.39657 21.2876 10.2218 13.5081 15.9799M10.6822 12.1619L13.5081 15.9799M10.6822 12.1619L13.5081 15.9799" stroke="#C1CF16" stroke-width="9.5" stroke-linecap="round"/>
</svg>
