<svg width="16" height="16" viewBox="0 0 16 16" fill="none" xmlns="http://www.w3.org/2000/svg">
<path d="M2.99992 6.33325H2.66659C2.03805 6.33325 1.72378 6.33325 1.52851 6.52851C1.33325 6.72379 1.33325 7.03805 1.33325 7.66659V13.3333C1.33325 13.9618 1.33325 14.2761 1.52851 14.4713C1.72378 14.6666 2.03805 14.6666 2.66659 14.6666H2.99992C3.62846 14.6666 3.94273 14.6666 4.13799 14.4713C4.33325 14.2761 4.33325 13.9618 4.33325 13.3333V7.66659C4.33325 7.03805 4.33325 6.72379 4.13799 6.52851C3.94273 6.33325 3.62846 6.33325 2.99992 6.33325Z" stroke="#0C0D0D" stroke-width="1.5"/>
<path d="M4.33325 2.83325C4.33325 3.66168 3.66168 4.33325 2.83325 4.33325C2.00483 4.33325 1.33325 3.66168 1.33325 2.83325C1.33325 2.00483 2.00483 1.33325 2.83325 1.33325C3.66168 1.33325 4.33325 2.00483 4.33325 2.83325Z" stroke="#0C0D0D" stroke-width="1.5"/>
<path d="M8.21725 6.33325H7.66659C7.03805 6.33325 6.72378 6.33325 6.52851 6.52851C6.33325 6.72379 6.33325 7.03805 6.33325 7.66659V13.3333C6.33325 13.9618 6.33325 14.2761 6.52851 14.4713C6.72378 14.6666 7.03805 14.6666 7.66659 14.6666H7.99992C8.62845 14.6666 8.94272 14.6666 9.13799 14.4713C9.33325 14.2761 9.33325 13.9618 9.33325 13.3333L9.33332 11C9.33332 9.89545 9.68532 8.99999 10.7252 8.99999C11.2451 8.99999 11.6666 9.44772 11.6666 9.99999V13C11.6666 13.6285 11.6666 13.9428 11.8619 14.1381C12.0571 14.3333 12.3714 14.3333 12.9999 14.3333H13.3324C13.9608 14.3333 14.275 14.3333 14.4703 14.1381C14.6655 13.9429 14.6656 13.6287 14.6657 13.0003L14.6667 9.33339C14.6667 7.67659 13.0909 6.33341 11.5311 6.33341C10.6432 6.33341 9.85105 6.76865 9.33332 7.44925C9.33325 7.02919 9.33325 6.81919 9.24205 6.66325C9.18425 6.56449 9.10199 6.48227 9.00325 6.4245C8.84732 6.33325 8.63732 6.33325 8.21725 6.33325Z" stroke="#0C0D0D" stroke-width="1.5" stroke-linejoin="round"/>
</svg>
