<svg width="16" height="16" viewBox="0 0 16 16" fill="none" xmlns="http://www.w3.org/2000/svg">
<path d="M8.00004 13.6666C9.20651 13.6666 10.3634 13.5474 11.4356 13.3289C12.7749 13.0559 13.4446 12.9193 14.0556 12.1337C14.6667 11.348 14.6667 10.4461 14.6667 8.64225V7.35759C14.6667 5.55374 14.6667 4.65183 14.0556 3.86617C13.4446 3.08051 12.7749 2.94401 11.4356 2.671C10.3634 2.45243 9.20651 2.33325 8.00004 2.33325C6.79357 2.33325 5.63663 2.45243 4.56441 2.671C3.22515 2.94401 2.55551 3.08051 1.94444 3.86617C1.33337 4.65183 1.33337 5.55374 1.33337 7.35759V8.64225C1.33337 10.4461 1.33337 11.348 1.94444 12.1337C2.55551 12.9193 3.22515 13.0559 4.56441 13.3289C5.63663 13.5474 6.79357 13.6666 8.00004 13.6666Z" stroke="#0C0D0D" stroke-width="1.5"/>
<path d="M10.6414 8.20868C10.5425 8.61255 10.0161 8.90261 8.96327 9.48281C7.81813 10.1137 7.2456 10.4293 6.78187 10.3077C6.6248 10.2665 6.48013 10.1941 6.35866 10.0959C6 9.80601 6 9.20401 6 8.00008C6 6.79615 6 6.19416 6.35866 5.9042C6.48013 5.80599 6.6248 5.73361 6.78187 5.69244C7.2456 5.57089 7.81813 5.88638 8.96327 6.51737C10.0161 7.09755 10.5425 7.38761 10.6414 7.79148C10.6751 7.92895 10.6751 8.07121 10.6414 8.20868Z" stroke="#0C0D0D" stroke-width="1.5" stroke-linejoin="round"/>
</svg>
